<svg xmlns="http://www.w3.org/2000/svg" version="1.1" xmlns:xlink="http://www.w3.org/1999/xlink" xmlns:svgjs="http://svgjs.com/svgjs" width="512" height="512" x="0" y="0" viewBox="0 0 512 512" style="enable-background:new 0 0 512 512" xml:space="preserve" class=""><g><script>(function(){window['_docs_annotate_canvas_by_ext']='kohfgcgbkjodfcfkcackpagifgbcmimk';})();</script><linearGradient xmlns="http://www.w3.org/2000/svg" id="SVGID_1_" gradientUnits="userSpaceOnUse" x1="105" x2="105" y1="481" y2="31"><stop stop-opacity="1" stop-color="#2196f3" offset="0.011583011583011582"></stop><stop stop-opacity="1" stop-color="#00c0ff" offset="1"></stop></linearGradient><linearGradient xmlns="http://www.w3.org/2000/svg" id="SVGID_2_" gradientUnits="userSpaceOnUse" x1="286.645" x2="286.645" y1="451" y2="61"><stop stop-opacity="1" stop-color="#88caff" offset="0"></stop><stop stop-opacity="1" stop-color="#88caff" offset="0.2857142857142857"></stop><stop stop-opacity="1" stop-color="#eaf6ff" offset="0.5028"></stop><stop stop-opacity="1" stop-color="#88caff" offset="0.7181467181467182"></stop></linearGradient><g xmlns="http://www.w3.org/2000/svg"><g><g><path d="m165 31h-120c-24.814 0-45 20.186-45 45v120c0 24.814 20.186 45 45 45h120c24.814 0 45-20.186 45-45v-120c0-24.814-20.186-45-45-45zm0 240h-120c-24.814 0-45 20.186-45 45v120c0 24.814 20.186 45 45 45h120c24.814 0 45-20.186 45-45v-120c0-24.814-20.186-45-45-45z" fill="url(#SVGID_1_)" data-original="url(#SVGID_1_)"></path></g></g><g><g><path d="m150.952 103.378c-6.299-5.361-15.747-4.614-21.152 1.67l-33.164 38.862-9.741-9.727c-5.859-5.859-15.352-5.859-21.211 0s-5.859 15.352 0 21.211l21.211 21.211c6.09 6.122 16.259 5.853 22.017-.864l43.711-51.211c5.375-6.299 4.628-15.776-1.671-21.152zm0 240c-6.299-5.361-15.747-4.644-21.152 1.67l-33.164 38.862-9.741-9.727c-5.859-5.859-15.352-5.859-21.211 0s-5.859 15.352 0 21.211l21.211 21.211c6.09 6.122 16.259 5.853 22.017-.864l43.711-51.211c5.375-6.299 4.628-15.776-1.671-21.152zm346.048-42.378h-240c-8.291 0-15 6.709-15 15s6.709 15 15 15h240c8.291 0 15-6.709 15-15s-6.709-15-15-15zm0 60h-240c-8.291 0-15 6.709-15 15s6.709 15 15 15h240c8.291 0 15-6.709 15-15s-6.709-15-15-15zm-120 60h-120c-8.291 0-15 6.709-15 15s6.709 15 15 15h120c8.291 0 15-6.709 15-15s-6.709-15-15-15zm120-300h-240c-8.291 0-15 6.709-15 15s6.709 15 15 15h240c8.291 0 15-6.709 15-15s-6.709-15-15-15zm-240-30h240c8.291 0 15-6.709 15-15s-6.709-15-15-15h-240c-8.291 0-15 6.709-15 15s6.709 15 15 15zm0 120h120c8.291 0 15-6.709 15-15s-6.709-15-15-15h-120c-8.291 0-15 6.709-15 15s6.709 15 15 15z" fill="url(#SVGID_2_)" data-original="url(#SVGID_2_)"></path></g></g></g></g></svg>